<svg xmlns="http://www.w3.org/2000/svg" viewBox="0 0 32 32"><path d="M16 2L4 7V16C4 22.6 9.2 28.6 16 30C22.8 28.6 28 22.6 28 16V7L16 2Z" fill="#0f0f0f"/><path d="M16 2L4 7V16C4 22.6 9.2 28.6 16 30C22.8 28.6 28 22.6 28 16V7L16 2Z" fill="none" stroke="#c8f135" stroke-width="1.5" stroke-linejoin="round"/><path d="M16 5.5L7 9.5V16C7 21 11.2 25.8 16 27.2C20.8 25.8 25 21 25 16V9.5L16 5.5Z" fill="#161616"/><text x="16" y="21.5" font-family="Georgia,serif" font-size="13" font-weight="700" fill="#c8f135" text-anchor="middle">S</text></svg>
